*** General
Complete name                             :  Vikings.S05E18.1080p.WEB.H264-METCON.mkv
Format                                    :  Matroska
Format version                            :  Version 4
File size                                 :  1.67 GiB
Duration                                  :  45 min 27 s
Overall bit rate                          :  5 255 kb/s
Encoded date                              :  UTC 2019-01-17 08:04:21
Writing application                       :  mkvmerge v30.1.0 ('Forever And More') 64-bit
Writing library                           :  libebml v1.3.6 + libmatroska v1.4.9

*** Video
ID                                        :  1
Format                                    :  AVC
Format/Info                               :  Advanced Video Codec
Format profile                            :  High@L4
Format settings                           :  CABAC / 4 Ref Frames
Format settings, CABAC                    :  Yes
Format settings, ReFrames                 :  4 frames
Codec ID                                  :  V_MPEG4/ISO/AVC
Duration                                  :  45 min 27 s
Bit rate                                  :  4 613 kb/s
Width                                     :  1 920 pixels
Height                                    :  1 080 pixels
Display aspect ratio                      :  16:9
Frame rate mode                           :  Constant
Frame rate                                :  23.976 (24000/1001) FPS
Color space                               :  YUV
Chroma subsampling                        :  4:2:0
Bit depth                                 :  8 bits
Scan type                                 :  Progressive
Bits/(Pixel*Frame)                        :  0.093
Stream size                               :  1.46 GiB (88%)
Language                                  :  English
Default                                   :  Yes
Forced                                    :  No
Color range                               :  Limited
Color primaries                           :  BT.709
Transfer characteristics                  :  BT.709
Matrix coefficients                       :  BT.709

*** Audio
ID                                        :  2
Format                                    :  E-AC-3
Format/Info                               :  Enhanced AC-3
Commercial name                           :  Dolby Digital Plus
Codec ID                                  :  A_EAC3
Duration                                  :  45 min 27 s
Bit rate mode                             :  Constant
Bit rate                                  :  640 kb/s
Channel(s)                                :  6 channels
Channel layout                            :  L R C LFE Ls Rs
Sampling rate                             :  48.0 kHz
Frame rate                                :  31.250 FPS (1536 SPF)
Compression mode                          :  Lossy
Stream size                               :  208 MiB (12%)
Language                                  :  English
Service kind                              :  Complete Main
Default                                   :  Yes
Forced                                    :  No

*** Text
ID                                        :  3
Format                                    :  UTF-8
Codec ID                                  :  S_TEXT/UTF8
Codec ID/Info                             :  UTF-8 Plain Text
Duration                                  :  44 min 27 s
Bit rate                                  :  45 b/s
Count of elements                         :  605
Stream size                               :  14.9 KiB (0%)
Title                                     :  English
Language                                  :  English
Default                                   :  No
Forced                                    :  No